<svg xmlns="http://www.w3.org/2000/svg" viewBox="0 0 944.79 200.62"><defs><style>.cls-1{fill:#fff;}.cls-2{fill:#5f43ab;}</style></defs><g id="Capa_13" data-name="Capa 13"><path class="cls-1" d="M159.24,219.8c.13-1.34.22-2.41.27-3.22.07-1.2.14-2.75.21-4.66.06-1.46.08-2.5.08-3.13v-1l1.78,0c.49,0,1.12,0,1.9,0s1.52,0,2.2,0a12.84,12.84,0,0,1,2.08.14,4.83,4.83,0,0,1,1.66.58,4.18,4.18,0,0,1,1.29,1.15,5.21,5.21,0,0,1,.79,1.68,6.8,6.8,0,0,1,.28,2,8.69,8.69,0,0,1-.21,1.92,7.21,7.21,0,0,1-.59,1.66,5.26,5.26,0,0,1-2,2.19,5,5,0,0,1-1,.44,7.47,7.47,0,0,1-1.35.25,19.8,19.8,0,0,1-2.16.11l-3.56,0Zm3.82-2.66c.32,0,.66.05,1,.05a7.14,7.14,0,0,0,1.61-.16,2.51,2.51,0,0,0,1.23-.68,3.09,3.09,0,0,0,.79-1.34,5.55,5.55,0,0,0,.26-1.67,3.8,3.8,0,0,0-.38-1.77,2.12,2.12,0,0,0-1-1,4.25,4.25,0,0,0-1.72-.28c-.42,0-.92,0-1.5.05Z" transform="translate(-11.61 -19.41)"/><path class="cls-1" d="M193.11,219.8c.33-4.72.5-8.36.5-10.9v-1.14l2.06,0,1.9,0c-.11,1.32-.19,2.57-.26,3.76-.08,1.64-.14,3.18-.17,4.61s-.06,2.66-.06,3.67l-1.81,0Z" transform="translate(-11.61 -19.41)"/><path class="cls-1" d="M219.1,219.8c.11-1,.2-2,.27-2.8s.12-1.79.16-2.88.09-2.25.11-3.46,0-2.18,0-2.9l1.79,0c.47,0,1,0,1.72,0s1.33,0,2,0,1.43,0,2,.08a5,5,0,0,1,1.21.26,3.69,3.69,0,0,1,.91.47,3,3,0,0,1,.62.62,2.76,2.76,0,0,1,.38.81,3.53,3.53,0,0,1,.14,1,3.92,3.92,0,0,1-.15,1.11,3.35,3.35,0,0,1-.47,1,3.43,3.43,0,0,1-.82.79,7,7,0,0,1-1.37.67l.46,1.12c.13.31.27.63.42,1l1.18,2.59.28.66-2,0-2.08,0-.51-1.7c-.1-.35-.19-.62-.26-.81-.14-.41-.35-1-.62-1.75l-.91-2.5a5,5,0,0,0,.93.09,3.34,3.34,0,0,0,1.17-.19,1.56,1.56,0,0,0,1.06-1.46,1.08,1.08,0,0,0-.2-.66,1.13,1.13,0,0,0-.64-.43,4.49,4.49,0,0,0-1.34-.14H224l-.78,0c-.07,1.21-.14,2.68-.2,4.41s-.09,3.44-.11,5.11l-1.91,0Z" transform="translate(-11.61 -19.41)"/><path class="cls-1" d="M251.64,219.8c.15-1.52.25-2.79.32-3.81s.14-2.38.21-4.08.1-2.82.1-3.37v-.78l5,0,4.81,0,0,.29c0,.07,0,.32,0,.76l-.05,1c0,.21,0,.42,0,.63-1.14-.05-2.09-.07-2.86-.07H257.4l-1.39,0-.11,2q1,0,2.43,0c.33,0,1.2,0,2.63-.07-.06.76-.12,1.65-.17,2.69h-2.35c-.81,0-1.72,0-2.72.06l-.11,2.14h1l1.86,0,1.82,0c.27,0,.73,0,1.36-.07q-.1,1.31-.18,2.7l-4.72,0h-5.13Z" transform="translate(-11.61 -19.41)"/><path class="cls-1" d="M293.86,216.86c-.07.35-.16.83-.26,1.45s-.17,1.1-.2,1.44A24.21,24.21,0,0,1,290,220a9.4,9.4,0,0,1-2.66-.36,6.59,6.59,0,0,1-2.26-1.17,4.52,4.52,0,0,1-1.47-1.92,6.71,6.71,0,0,1-.44-2.47,6.82,6.82,0,0,1,.59-2.87,5.66,5.66,0,0,1,1.72-2.13A7.15,7.15,0,0,1,288,207.9a10.15,10.15,0,0,1,2.76-.37,18.67,18.67,0,0,1,3.22.34l0,.74c0,.32,0,.68.06,1.06l.06,1c-.69-.17-1.25-.28-1.67-.34a10.63,10.63,0,0,0-1.19-.09,4.68,4.68,0,0,0-2.14.48,3.53,3.53,0,0,0-1.5,1.39,3.75,3.75,0,0,0-.55,2,3.09,3.09,0,0,0,.46,1.72,3,3,0,0,0,1.24,1.11,4.13,4.13,0,0,0,1.92.4,9.81,9.81,0,0,0,1.37-.11A14.13,14.13,0,0,0,293.86,216.86Z" transform="translate(-11.61 -19.41)"/><path class="cls-1" d="M325.84,216.86c-.07.35-.16.83-.26,1.45s-.16,1.1-.2,1.44A24.21,24.21,0,0,1,322,220a9.45,9.45,0,0,1-2.66-.36,6.68,6.68,0,0,1-2.26-1.17,4.68,4.68,0,0,1-1.47-1.92,7.16,7.16,0,0,1,.16-5.34,5.73,5.73,0,0,1,1.71-2.13,7.11,7.11,0,0,1,2.45-1.21,10.08,10.08,0,0,1,2.75-.37,18.77,18.77,0,0,1,3.23.34l0,.74c0,.32,0,.68.05,1.06l.06,1c-.69-.17-1.24-.28-1.67-.34a10.46,10.46,0,0,0-1.19-.09,4.71,4.71,0,0,0-2.14.48,3.65,3.65,0,0,0-1.5,1.39,3.84,3.84,0,0,0-.55,2,3.18,3.18,0,0,0,.46,1.72A3.09,3.09,0,0,0,320.7,217a4.15,4.15,0,0,0,1.93.4,9.67,9.67,0,0,0,1.36-.11A13.8,13.8,0,0,0,325.84,216.86Z" transform="translate(-11.61 -19.41)"/><path class="cls-1" d="M347.43,219.8c.34-4.72.51-8.36.51-10.9v-1.14l2.07,0,1.9,0c-.11,1.32-.2,2.57-.26,3.76-.08,1.64-.14,3.18-.18,4.61s0,2.66,0,3.67l-1.81,0Z" transform="translate(-11.61 -19.41)"/><path class="cls-1" d="M380.73,207.53a9.82,9.82,0,0,1,2.72.38,6.1,6.1,0,0,1,2.28,1.21A5.61,5.61,0,0,1,387.2,211a6.13,6.13,0,0,1,.48,2.5,6.94,6.94,0,0,1-.53,2.72,5.76,5.76,0,0,1-1.54,2.1,6.28,6.28,0,0,1-2.4,1.27,10.7,10.7,0,0,1-5.76,0,6.21,6.21,0,0,1-2.38-1.27,5.08,5.08,0,0,1-1.43-2,6.48,6.48,0,0,1-.43-2.39,6.31,6.31,0,0,1,.9-3.39,6,6,0,0,1,2.65-2.28A9.27,9.27,0,0,1,380.73,207.53Zm-.16,2.65a3.4,3.4,0,0,0-3.1,1.89A4.24,4.24,0,0,0,377,214a3.66,3.66,0,0,0,.41,1.71,2.75,2.75,0,0,0,1.22,1.21,3.62,3.62,0,0,0,1.73.44,3.38,3.38,0,0,0,1.8-.49,3.14,3.14,0,0,0,1.24-1.38,4.15,4.15,0,0,0,.43-1.85,3.77,3.77,0,0,0-.4-1.74,2.79,2.79,0,0,0-1.16-1.24A3.36,3.36,0,0,0,380.57,210.18Zm-1.26-3.54.33-.73c.08-.17.17-.38.27-.61l.27-.62,1.76,0,1.78,0-.77.86c-.06.06-.19.22-.39.46l-.54.64-1.4,0Z" transform="translate(-11.61 -19.41)"/><path class="cls-1" d="M409,219.8l.18-1.85.34-6.28.1-2.54v-1.37l2.42,0,2.11,0,3.77,6.85.52,1c.06-1,.13-2.37.2-4.15s.1-3,.1-3.7l1.74,0,1.73,0-.21,2.63-.4,7.3-.05,2.11-2.15,0-2.29,0c-.31-.58-.54-1-.68-1.25L414.92,216c-.49-.82-.94-1.61-1.35-2.36-.27-.48-.55-1-.84-1.57l-.19,4.18-.09,3.52-1.66,0Z" transform="translate(-11.61 -19.41)"/><path class="cls-1" d="M471.26,219.8l-.33-1.08-2.15-6.2-1.7-4.76,2.14,0,1.79,0,.32,1.19.6,1.92,1.3,4.17c.13.44.29,1,.48,1.71l.41-1,3.07-6.74c.05-.13.11-.27.18-.43s.18-.42.32-.8l2.06,0,1.92,0c-.6,1.12-1.27,2.42-2,3.92l-3,6c-.3.59-.63,1.28-1,2.09l-2.12,0Z" transform="translate(-11.61 -19.41)"/><path class="cls-1" d="M508.82,207.53a9.82,9.82,0,0,1,2.72.38,6.22,6.22,0,0,1,2.29,1.21,5.46,5.46,0,0,1,1.46,1.92,6.13,6.13,0,0,1,.48,2.5,6.77,6.77,0,0,1-.53,2.72,5.76,5.76,0,0,1-1.54,2.1,6.28,6.28,0,0,1-2.4,1.27,10.7,10.7,0,0,1-5.76,0,6.17,6.17,0,0,1-2.37-1.27,5,5,0,0,1-1.44-2,6.48,6.48,0,0,1-.42-2.39,6.4,6.4,0,0,1,.89-3.39,6.05,6.05,0,0,1,2.66-2.28A9.2,9.2,0,0,1,508.82,207.53Zm-.15,2.65a3.5,3.5,0,0,0-1.84.5,3.32,3.32,0,0,0-1.26,1.39,4.11,4.11,0,0,0-.44,1.9,3.65,3.65,0,0,0,.4,1.71,2.8,2.8,0,0,0,1.22,1.21,3.68,3.68,0,0,0,1.74.44,3.37,3.37,0,0,0,1.79-.49,3.16,3.16,0,0,0,1.25-1.38,4.29,4.29,0,0,0,.43-1.85,3.9,3.9,0,0,0-.4-1.74,2.81,2.81,0,0,0-1.17-1.24A3.32,3.32,0,0,0,508.67,210.18Z" transform="translate(-11.61 -19.41)"/><path class="cls-1" d="M547.48,216.86c-.07.35-.15.83-.25,1.45s-.17,1.1-.2,1.44a24.33,24.33,0,0,1-3.37.28,9.4,9.4,0,0,1-2.66-.36,6.59,6.59,0,0,1-2.26-1.17,4.52,4.52,0,0,1-1.47-1.92,6.71,6.71,0,0,1-.44-2.47,6.82,6.82,0,0,1,.59-2.87,5.66,5.66,0,0,1,1.72-2.13,7.15,7.15,0,0,1,2.44-1.21,10.13,10.13,0,0,1,2.75-.37,18.67,18.67,0,0,1,3.23.34l0,.74c0,.32,0,.68,0,1.06l.07,1c-.69-.17-1.25-.28-1.68-.34a10.3,10.3,0,0,0-1.18-.09,4.72,4.72,0,0,0-2.15.48,3.57,3.57,0,0,0-1.49,1.39,3.75,3.75,0,0,0-.55,2,3.09,3.09,0,0,0,.46,1.72,3,3,0,0,0,1.24,1.11,4.13,4.13,0,0,0,1.92.4,9.81,9.81,0,0,0,1.37-.11A13.71,13.71,0,0,0,547.48,216.86Z" transform="translate(-11.61 -19.41)"/><path class="cls-1" d="M567.46,219.8l.74-1.27,4.56-8.59.48-1c.14-.29.34-.69.59-1.22l2.27,0,2.3,0,1.29,3.68,2.62,7.07.51,1.29-1.85,0-2.19,0c-.25-1-.63-2.11-1.11-3.42h-4.44c-.52,1-1,2.17-1.59,3.42l-2,0Zm6.83-6H577c-.68-2.07-1-3.21-1.12-3.43-.38.87-.71,1.58-1,2.13Z" transform="translate(-11.61 -19.41)"/><path class="cls-1" d="M614,216.86c-.07.35-.15.83-.25,1.45s-.17,1.1-.2,1.44a24.21,24.21,0,0,1-3.37.28,9.4,9.4,0,0,1-2.66-.36,6.59,6.59,0,0,1-2.26-1.17,4.52,4.52,0,0,1-1.47-1.92,6.71,6.71,0,0,1-.44-2.47,6.82,6.82,0,0,1,.59-2.87,5.66,5.66,0,0,1,1.72-2.13,7.15,7.15,0,0,1,2.44-1.21,10.15,10.15,0,0,1,2.76-.37,18.67,18.67,0,0,1,3.22.34l0,.74c0,.32,0,.68.06,1.06l.06,1c-.69-.17-1.25-.28-1.68-.34a10.3,10.3,0,0,0-1.18-.09,4.72,4.72,0,0,0-2.15.48,3.57,3.57,0,0,0-1.49,1.39,3.75,3.75,0,0,0-.55,2,3.09,3.09,0,0,0,.46,1.72,3,3,0,0,0,1.24,1.11,4.13,4.13,0,0,0,1.92.4,9.81,9.81,0,0,0,1.37-.11A13.71,13.71,0,0,0,614,216.86Z" transform="translate(-11.61 -19.41)"/><path class="cls-1" d="M635.64,219.8c.34-4.72.51-8.36.51-10.9v-1.14l2.06,0,1.9,0c-.1,1.32-.19,2.57-.26,3.76-.08,1.64-.14,3.18-.17,4.61s-.06,2.66-.06,3.67l-1.8,0Z" transform="translate(-11.61 -19.41)"/><path class="cls-1" d="M668.94,207.53a9.75,9.75,0,0,1,2.71.38,6.14,6.14,0,0,1,2.29,1.21A5.46,5.46,0,0,1,675.4,211a6,6,0,0,1,.49,2.5,6.77,6.77,0,0,1-.54,2.72,5.65,5.65,0,0,1-1.54,2.1,6.31,6.31,0,0,1-2.39,1.27,10.73,10.73,0,0,1-5.77,0,6.17,6.17,0,0,1-2.37-1.27,5.11,5.11,0,0,1-1.44-2,6.48,6.48,0,0,1-.42-2.39,6.31,6.31,0,0,1,.9-3.39,6,6,0,0,1,2.65-2.28A9.24,9.24,0,0,1,668.94,207.53Zm-.16,2.65a3.5,3.5,0,0,0-1.84.5,3.39,3.39,0,0,0-1.26,1.39,4.24,4.24,0,0,0-.44,1.9,3.65,3.65,0,0,0,.4,1.71,2.85,2.85,0,0,0,1.22,1.21,3.68,3.68,0,0,0,1.74.44,3.43,3.43,0,0,0,1.8-.49,3.2,3.2,0,0,0,1.24-1.38,4.29,4.29,0,0,0,.43-1.85,3.77,3.77,0,0,0-.4-1.74,2.79,2.79,0,0,0-1.16-1.24A3.38,3.38,0,0,0,668.78,210.18Z" transform="translate(-11.61 -19.41)"/><path class="cls-1" d="M697.18,219.8l.18-1.85.34-6.28.1-2.54v-1.37l2.42,0,2.11,0,3.76,6.85.52,1c.07-1,.14-2.37.21-4.15s.1-3,.1-3.7l1.74,0,1.72,0-.21,2.63-.39,7.3-.06,2.11-2.14,0-2.3,0c-.3-.58-.53-1-.68-1.25L703.12,216c-.48-.82-.93-1.61-1.34-2.36-.27-.48-.55-1-.84-1.57l-.19,4.18-.09,3.52-1.67,0Z" transform="translate(-11.61 -19.41)"/><path class="cls-1" d="M730.29,219.8l.74-1.27,4.56-8.59.48-1,.6-1.22,2.26,0,2.3,0,1.29,3.68,2.62,7.07.51,1.29-1.85,0-2.19,0c-.25-1-.63-2.11-1.11-3.42h-4.44c-.52,1-1,2.17-1.59,3.42l-2,0Zm6.83-6h2.74c-.68-2.07-1.05-3.21-1.12-3.43-.38.87-.71,1.58-1,2.13Z" transform="translate(-11.61 -19.41)"/><path class="cls-1" d="M766.36,219.8c.15-1.39.25-2.52.32-3.4.12-1.6.22-3.19.28-4.76s.09-2.88.09-3.88l2.13,0,1.79,0-.21,3.19-.26,5,0,1.22,2,0q2.31,0,3.51-.06l-.2,2.66-4.42,0Z" transform="translate(-11.61 -19.41)"/></g><g id="Capa_12" data-name="Capa 12"><path class="cls-1" d="M93.92,154.27q-.83,4-2,11.17t-1.57,11.11a178.41,178.41,0,0,1-26,2.18A73.33,73.33,0,0,1,43.81,176a50.32,50.32,0,0,1-17.45-9.07A35.83,35.83,0,0,1,15,152.09,51,51,0,0,1,11.61,133a51.91,51.91,0,0,1,4.6-22.18A43.6,43.6,0,0,1,29.43,94.41,54.82,54.82,0,0,1,48.34,85a79.56,79.56,0,0,1,21.25-2.83,149.19,149.19,0,0,1,24.94,2.59l.14,5.72c.09,2.5.22,5.25.41,8.25l.47,7.76q-8-1.91-12.91-2.58a66.51,66.51,0,0,0-9.16-.69,36.58,36.58,0,0,0-16.56,3.68,27.75,27.75,0,0,0-11.58,10.7,29.53,29.53,0,0,0-4.23,15.54,24.22,24.22,0,0,0,3.55,13.32,23.78,23.78,0,0,0,9.57,8.58q6,3,14.89,3a77.8,77.8,0,0,0,10.52-.78A125.92,125.92,0,0,0,93.92,154.27Z" transform="translate(-11.61 -19.41)"/></g><g id="Capa_11" data-name="Capa 11"><path class="cls-1" d="M241.22,177q3.39-33.1,4.06-72.9l-29,.75.35-7.56q.27-6.06.4-13.29,19.35.14,45.09.14L279,84H295.3l8.85-.07-.41,6.68c-.18,3.58-.3,6.53-.37,8.87s-.1,4.11-.1,5.3q-14.58-.75-24-.75h-4.77q-1,12-1.58,22.24-.75,14.62-1.16,28.39T271.32,177q-11.18-.13-14.44-.13Q254,176.82,241.22,177Z" transform="translate(-11.61 -19.41)"/></g><g id="Capa_10" data-name="Capa 10"><path class="cls-1" d="M296.89,177l5.65-9.81,35.25-66.36,3.75-7.42q1.63-3.28,4.56-9.41,12,.14,17.51.14,9.61,0,17.78-.14l9.94,28.41L411.56,167l3.95,9.94q-11.81-.13-14.33-.13-5.73,0-16.84.13-3-11.23-8.64-26.43H341.4q-5.92,12-12.25,26.43-12.69-.13-15.55-.13Q308.41,176.82,296.89,177Zm52.75-46.26H370.8q-7.89-24-8.64-26.46-4.49,10-7.62,16.4Z" transform="translate(-11.61 -19.41)"/></g><g id="Capa_9" data-name="Capa 9"><path class="cls-1" d="M422.93,177l1.36-17.44,1.76-34.06.74-24.12c0-2.59.07-5.18.07-7.77,0-2,0-5.16-.07-9.61q9,.21,14.45.21,5.25,0,14.38-.31t15.47-.31q9.14,0,13.53,1.16a24.72,24.72,0,0,1,7.94,3.65,23.49,23.49,0,0,1,5.86,5.82,24.35,24.35,0,0,1,3.48,7.6,33,33,0,0,1,1.16,8.69,32.46,32.46,0,0,1-4.43,16.69,27.64,27.64,0,0,1-12.47,11.31,42.22,42.22,0,0,1-18.06,3.75,52.36,52.36,0,0,1-8.51-.82q-.55-3.13-2-9.34c-1-4.13-1.81-7.19-2.45-9.19a31.16,31.16,0,0,0,6.27.61q6.88,0,10.25-3.3a10.9,10.9,0,0,0,3.38-8.08,10.66,10.66,0,0,0-.75-4.12,6.75,6.75,0,0,0-2.39-3,8.53,8.53,0,0,0-3.61-1.5,26.43,26.43,0,0,0-4.5-.34c-1.63,0-3.33,0-5.11.13l-5.72.41q-.87,13.16-1.35,29.23-.87,29.3-.87,35.16V177l-13.57-.13Q434.26,176.82,422.93,177Z" transform="translate(-11.61 -19.41)"/></g><g id="Capa_8" data-name="Capa 8"><path class="cls-1" d="M515.81,84q10.63.14,15,.14,5.44,0,14.5-.14l-2,29q-.6,8.18-.91,15.33t-.3,9.88a41.92,41.92,0,0,0,.75,8.65,13.53,13.53,0,0,0,2.72,5.89,11.89,11.89,0,0,0,5.48,3.65,21.93,21.93,0,0,0,7.32,1.23,20.33,20.33,0,0,0,6.13-.9,14.12,14.12,0,0,0,4-2,13.82,13.82,0,0,0,2.72-2.84,19.6,19.6,0,0,0,2.52-4.87,30,30,0,0,0,1.64-7.14q.61-4.46,1.63-20.28.88-13.47,1.37-24.67c.27-7.24.52-10.87.75-10.87h30l-3.31,48.38c-.05.91-.07,1.66-.07,2.25q-.27,14.16-1.74,20a26.27,26.27,0,0,1-4.87,10.12,30.69,30.69,0,0,1-9.95,7.73,49.84,49.84,0,0,1-14.86,4.88,99.4,99.4,0,0,1-16.83,1.43,97.55,97.55,0,0,1-14.72-1.09A58.45,58.45,0,0,1,531,174.47a42.19,42.19,0,0,1-9.13-4.87,23.83,23.83,0,0,1-5.46-5.28,21.54,21.54,0,0,1-3-6.44,32.68,32.68,0,0,1-1.22-9.06c0-1.09,0-2.74.13-4.94s.3-5.37.62-9.51l.89-10.9q.34-4.29.75-12.6Z" transform="translate(-11.61 -19.41)"/></g><g id="Capa_7" data-name="Capa 7"><path class="cls-1" d="M619.5,177q1.71-16.06,2.46-26.23,1.44-18.53,2.16-36.82T624.84,84q9.25.14,16.4.14,4.83,0,13.89-.14l-1.64,24.67-2,38.56-.28,9.47q11.73.21,15.27.2,17.93,0,27.13-.47L692.06,177q-17.92-.13-34.14-.13Q636,176.82,619.5,177Z" transform="translate(-11.61 -19.41)"/></g><g id="Capa_6" data-name="Capa 6"><path class="cls-1" d="M722.65,177q3.39-33.1,4.06-72.9l-29,.75.34-7.56q.29-6.06.41-13.29,19.35.14,45.09.14L760.38,84h16.34l8.86-.07-.41,6.68c-.18,3.58-.31,6.53-.37,8.87s-.11,4.11-.11,5.3q-14.57-.75-24-.75H755.9q-1,12-1.58,22.24-.75,14.62-1.16,28.39T752.75,177q-11.18-.13-14.44-.13Q735.39,176.82,722.65,177Z" transform="translate(-11.61 -19.41)"/></g><g id="Capa_5" data-name="Capa 5"><path class="cls-1" d="M778.32,177l5.65-9.81,35.25-66.36L823,93.36q1.63-3.28,4.56-9.41,12,.14,17.51.14,9.6,0,17.78-.14l9.94,28.41L893,167l4,9.94q-11.81-.13-14.33-.13-5.73,0-16.84.13-3-11.23-8.64-26.43h-34.3q-5.93,12-12.25,26.43-12.69-.13-15.55-.13Q789.84,176.82,778.32,177Zm52.75-46.26h21.16q-7.89-24-8.64-26.46-4.49,10-7.62,16.4Z" transform="translate(-11.61 -19.41)"/></g><g id="Capa_4" data-name="Capa 4"><path class="cls-2" d="M152,49.2S505.06,9.42,892.58,158.26l4.53-19.06S539.52,0,152,49.2Z" transform="translate(-11.61 -19.41)"/></g><g id="Capa_3" data-name="Capa 3"><ellipse class="cls-1" cx="932.9" cy="163.54" rx="14.91" ry="24.25" transform="translate(474.95 979.5) rotate(-71.83)"/></g><g id="Capa_2" data-name="Capa 2"><path class="cls-1" d="M209.41,167l-20.23-54.65L179.47,84.6,158.38,19.41,146.6,23.09l0-.05c-6.16-.09-13.68,2.12-18,7.19A21.33,21.33,0,0,0,155.51,62.5L162,84.09h-.58q-5.52,0-17.51-.14-2.92,6.14-4.56,9.41l-3.75,7.42-35.25,66.36L94.73,177q11.53-.13,16.72-.13,2.85,0,15.55.13,6.33-14.43,12.25-26.43h34.3q5.64,15.19,8.63,26.43,11.13-.13,16.85-.13,2.52,0,14.32.13Zm-61.92-36.32,4.9-10.06q3.12-6.41,7.62-16.4.75,2.46,8.64,26.46Z" transform="translate(-11.61 -19.41)"/></g></svg>